<svg width="68" height="68" fill="none" xmlns="http://www.w3.org/2000/svg"><path d="M35.76 28.908L5.554 21.522c-.688-.168-1.02-.63-1.097-1.067-.075-.43.077-.922.633-1.259L33.904 1.741 33.139.478l.765 1.263a1.732 1.732 0 011.249-.202l30.183 6.457c.7.15 1.05.607 1.14 1.046.088.43-.05.923-.596 1.272L37.09 28.698a1.73 1.73 0 01-1.33.21z" stroke="#000" stroke-width="3"/><path d="M35.32 41.54l-.322 1.466.322-1.465zM5.224 34.92l.322-1.464-.322 1.465zm61.03-9.79a1.5 1.5 0 00-1.593-2.542l1.594 2.541zm-28.41 16.044l.746 1.3.025-.014.025-.015-.797-1.27zM4.346 34.538l.935-1.173-.935 1.173zm31.296 5.538l-30.097-6.62-.645 2.93 30.097 6.62.645-2.93zM64.66 22.588L37.046 39.903l1.594 2.542 27.615-17.316-1.594-2.541zM34.998 43.006c1.213.267 2.517.086 3.592-.531l-1.494-2.602a2.082 2.082 0 01-1.453.203l-.645 2.93zM5.282 33.365c-.533-.425-1.031-1.207-1.383-2.346-.345-1.119-.51-2.46-.472-3.83.036-1.37.272-2.71.68-3.83.415-1.137.962-1.929 1.539-2.36l-1.798-2.402c-1.209.904-2.03 2.283-2.56 3.735-.535 1.47-.816 3.136-.86 4.776-.044 1.64.147 3.314.605 4.796.451 1.463 1.204 2.87 2.379 3.807l1.87-2.346zm.264.09a1.224 1.224 0 01-.207-.06.26.26 0 01-.057-.03l-1.87 2.346c.502.4 1.059.58 1.49.675l.644-2.93z" fill="#000"/><path d="M65.437 23.858c-2.032-2.2-4.471-7.512 0-13.198m0 25.89c-2.032-2.2-4.471-7.513 0-13.199" stroke="#000" stroke-width="3"/><path fill-rule="evenodd" clip-rule="evenodd" d="M66.416 47.578c-.807-.927-1.685-2.466-1.931-4.334-.252-1.908.142-4.254 2.13-6.783l-2.358-1.854c-2.482 3.157-3.105 6.31-2.747 9.03.245 1.856.94 3.465 1.743 4.708L37.075 64.76c-.396.22-.924.302-1.432.19L5.546 58.33a.857.857 0 01-.315-.118c-1.26-.928-2.127-2.819-2.223-4.921-.095-2.103.596-3.944 1.846-4.88l-1.798-2.402C.737 47.745-.11 50.732.012 53.427c.122 2.696 1.233 5.574 3.44 7.2l.875-1.188-.876 1.188a3.801 3.801 0 001.45.633L35 67.88c1.212.267 2.517.087 3.592-.531l.025-.014.024-.016 27.615-17.315a1.5 1.5 0 00.16-2.426z" fill="#000"/><path fill-rule="evenodd" clip-rule="evenodd" d="M66.415 35.32c-.806-.927-1.684-2.466-1.93-4.333-.252-1.909.142-4.255 2.13-6.783l-2.358-1.855c-2.482 3.157-3.105 6.31-2.747 9.03a11.52 11.52 0 001.743 4.709L37.075 52.502c-.396.22-.924.302-1.432.19l-30.097-6.62a.859.859 0 01-.315-.117c-1.26-.929-2.127-2.82-2.223-4.922-.095-2.102.596-3.944 1.846-4.88l-1.798-2.401C.737 35.488-.11 38.474.012 41.17c.122 2.695 1.233 5.573 3.44 7.2l.875-1.189-.876 1.189a3.8 3.8 0 001.45.632L35 55.622c1.212.267 2.517.087 3.592-.53l.025-.015.024-.015 27.615-17.316a1.5 1.5 0 00.16-2.426z" fill="#000"/><path d="M51.227 11.168L35.978 7.614m10.166 6.6L30.895 10.66m10.166 7.107l-15.249-3.554" stroke="#000" stroke-width="2" stroke-linecap="round"/></svg>